<svg width="89" height="89" viewBox="0 0 89 89" fill="none" xmlns="http://www.w3.org/2000/svg">
<circle cx="44" cy="44" r="44" fill="#253D61"/>
<path fill-rule="evenodd" clip-rule="evenodd" d="M43.9752 9.00018C43.7672 9.00336 43.56 9.04783 43.369 9.13022C43.1781 9.21265 43.0036 9.33296 42.8586 9.48216C42.7137 9.63135 42.5985 9.80928 42.5216 10.0026C42.4447 10.1958 42.4063 10.4043 42.4093 10.6123V22.0632C42.3685 22.3111 42.3875 22.5686 42.4643 22.8077C42.5411 23.0469 42.6755 23.2673 42.853 23.445C42.8638 23.4566 42.8747 23.4681 42.8858 23.4793C42.8866 23.4798 42.887 23.4801 42.8876 23.4809C43.0627 23.652 43.2779 23.7818 43.5109 23.8569C43.7439 23.932 43.9944 23.9523 44.2365 23.9156C54.8427 24.0425 63.3734 32.6427 63.3734 43.2788C63.3734 43.3352 63.367 43.4443 63.3662 43.6093L63.3646 43.7021C63.3336 43.8638 63.3279 44.0304 63.3478 44.1938C62.8737 54.4011 54.5409 62.5266 44.238 62.6502C44.0805 62.6263 43.9193 62.6263 43.7617 62.6502C33.465 62.5263 25.1303 54.3975 24.6597 44.1871C24.6805 44.0142 24.6725 43.8379 24.6363 43.6676C24.6345 43.5452 24.6336 43.4176 24.6336 43.2788C24.6336 34.7269 30.1628 27.4885 37.8361 24.9111C38.0357 24.8467 38.2224 24.7424 38.3817 24.6061C38.5411 24.4697 38.673 24.3015 38.7676 24.1143C38.8621 23.9271 38.919 23.7209 38.934 23.5117C38.9491 23.3025 38.9221 23.0904 38.8553 22.8916C38.7886 22.6928 38.682 22.5074 38.5438 22.3497C38.4054 22.192 38.2356 22.0621 38.0473 21.9698C37.8589 21.8776 37.6522 21.8232 37.4428 21.8107C37.2334 21.7982 37.0217 21.8277 36.8236 21.8969C28.1428 24.8126 21.8325 32.8655 21.471 42.4124H10.6101C10.4003 42.4124 10.1901 42.449 9.9955 42.5276C9.80088 42.6063 9.62209 42.7236 9.47286 42.871C9.32356 43.0184 9.20384 43.1957 9.12299 43.3893C9.04206 43.5828 9 43.7925 9 44.0023C9 44.2121 9.04206 44.4218 9.12299 44.6154C9.20384 44.809 9.32356 44.9863 9.47286 45.1336C9.62209 45.2811 9.80088 45.3985 9.9955 45.477C10.1901 45.5557 10.4003 45.5948 10.6101 45.5922H21.5763C22.6837 56.4274 31.4855 65.0111 42.41 65.7761V77.392C42.4074 77.6018 42.4468 77.812 42.5253 78.0066C42.6037 78.2011 42.7212 78.3799 42.8686 78.5291C43.016 78.6783 43.1933 78.798 43.3868 78.8789C43.5804 78.9598 43.7901 79.0018 43.9999 79.0018C44.2096 79.0018 44.4194 78.9597 44.6129 78.8789C44.8064 78.798 44.9837 78.6783 45.1311 78.5291C45.2786 78.3799 45.396 78.2011 45.4745 78.0066C45.553 77.812 45.5924 77.6018 45.5898 77.392V65.7764C56.5209 65.0119 65.3238 56.4278 66.4313 45.5922H77.3899C77.5997 45.5922 77.8099 45.5556 78.0045 45.477C78.1991 45.3983 78.3779 45.2811 78.5271 45.1336C78.6764 44.9863 78.7962 44.809 78.877 44.6154C78.9579 44.4218 79 44.2121 79 44.0023C79 43.7925 78.9579 43.5828 78.877 43.3892C78.7962 43.1956 78.6764 43.0183 78.5271 42.8709C78.3779 42.7235 78.1991 42.606 78.0045 42.5276C77.8099 42.4489 77.5997 42.4097 77.3899 42.4124H66.5357C66.0986 30.9076 56.9999 21.5878 45.5898 20.7895V10.6123C45.5927 10.4003 45.5528 10.1878 45.473 9.99145C45.3932 9.79506 45.2736 9.61494 45.1236 9.46512C44.9736 9.31531 44.7933 9.19593 44.5969 9.11634C44.4004 9.03675 44.1879 8.99698 43.9759 9.00018H43.9752Z" fill="#EFF0FF"/>
<path fill-rule="evenodd" clip-rule="evenodd" d="M43.9993 33.5959C38.2749 33.5959 33.5928 38.2696 33.5928 44.0022C33.5928 49.7348 38.2749 54.4087 43.9993 54.4087C49.7302 54.4087 54.4056 49.7331 54.4056 44.0022C54.4056 38.2713 49.7302 33.5959 43.9993 33.5959V33.5959ZM43.9993 36.7757C48.015 36.7757 51.2258 39.9865 51.2258 44.0022C51.2258 48.0179 48.015 51.2289 43.9993 51.2289C39.9929 51.2289 36.7725 48.0162 36.7725 44.0022C36.7725 39.9882 39.9929 36.7757 43.9993 36.7757Z" fill="#B9BCFF"/>
</svg>
